<?xml version="1.0" encoding="UTF-8"?>
<svg width="32" height="32" viewBox="0 0 32 32" fill="none" xmlns="http://www.w3.org/2000/svg">
  <!-- Background circle -->
  <circle cx="16" cy="16" r="16" fill="#1DB954"/>

  <!-- Simple music note -->
  <path d="M18 12C18 10.8954 17.1046 10 16 10C14.8954 10 14 10.8954 14 12V18.5C14 19.3284 13.3284 20 12.5 20C11.6716 20 11 19.3284 11 18.5C11 17.6716 11.6716 17 12.5 17C13.3284 17 14 17.6716 14 18.5V12C14 9.79086 15.7909 8 18 8C20.2091 8 22 9.79086 22 12V20.5C22 21.3284 21.3284 22 20.5 22C19.6716 22 19 21.3284 19 20.5C19 19.6716 19.6716 19 20.5 19C21.3284 19 22 19.6716 22 20.5V12C22 9.79086 20.2091 8 18 8V12Z" fill="white"/>
</svg>
